<?xml version="1.0" standalone="no"?>
<!DOCTYPE svg PUBLIC "-//W3C//DTD SVG 20010904//EN"
 "http://www.w3.org/TR/2001/REC-SVG-20010904/DTD/svg10.dtd">
<svg version="1.0" xmlns="http://www.w3.org/2000/svg"
 width="400.000000pt" height="400.000000pt" viewBox="0 0 400.000000 400.000000"
 preserveAspectRatio="xMidYMid meet">
<metadata>
Created by potrace 1.14, written by Peter Selinger 2001-2017
</metadata>
<g transform="translate(0.000000,400.000000) scale(0.100000,-0.100000)"
fill="#000000" stroke="none">
<path d="M588 3713 c-2 -10 -3 -231 -3 -491 l1 -473 109 -106 c61 -57 111 -99
112 -91 1 7 4 155 7 328 4 309 9 376 27 394 8 9 58 -28 159 -119 102 -92 712
-706 773 -778 53 -64 64 -83 58 -100 -14 -38 -130 -170 -295 -336 l-163 -164
-386 -2 -387 -2 -77 -69 c-43 -38 -98 -88 -123 -111 l-45 -43 295 -1 c396 -2
457 -7 446 -35 -3 -9 -6 -20 -6 -25 0 -17 -81 -47 -145 -54 -55 -6 -320 -13
-590 -15 l-110 -1 -46 -42 c-77 -70 -181 -162 -193 -169 -13 -9 10 -9 524 -9
l375 0 1 -332 c2 -367 9 -576 22 -589 18 -18 162 115 181 166 16 40 20 123 22
416 1 175 7 318 14 353 12 61 45 106 98 133 25 13 28 13 34 -3 9 -23 8 -165
-2 -358 -10 -193 -9 -329 2 -350 8 -13 16 -11 54 18 39 31 144 141 177 188 12
18 11 152 -3 359 -2 30 -6 141 -10 245 l-7 190 194 192 c187 186 265 258 314
290 22 14 26 14 57 -10 47 -36 174 -163 312 -311 66 -71 126 -135 133 -142 9
-10 12 -105 12 -409 l0 -397 62 -72 c69 -78 124 -132 151 -147 13 -8 19 -6 24
8 10 23 9 199 -2 378 -10 177 -8 301 6 327 10 19 12 19 37 2 95 -60 102 -94
106 -539 4 -291 8 -343 35 -385 26 -41 145 -150 163 -150 16 0 21 112 24 490
2 228 3 420 3 427 1 9 105 12 432 11 237 0 432 2 434 4 2 2 -44 53 -103 113
l-107 109 -340 2 c-254 1 -351 4 -384 14 -67 21 -132 97 -86 101 8 1 20 3 25
4 6 1 159 3 341 4 183 0 329 5 327 10 -1 5 -47 55 -101 112 l-99 104 -405 1
-406 0 -169 175 c-169 173 -288 310 -288 331 0 31 182 230 530 578 312 313
428 418 462 420 24 1 30 -99 31 -477 0 -139 3 -253 6 -253 4 0 55 48 114 108
l107 107 -1 483 0 482 -462 0 -463 0 -31 -37 c-17 -21 -40 -47 -50 -58 -10
-11 -35 -42 -56 -68 l-38 -47 68 -1 c223 -2 519 -15 546 -24 7 -2 24 -6 40 -9
15 -4 27 -12 27 -18 0 -26 -165 -202 -546 -582 -249 -250 -419 -412 -450 -429
-10 -6 -26 0 -47 16 -64 49 -592 583 -829 838 -147 159 -160 178 -115 180 12
1 36 3 52 5 17 2 162 6 323 8 161 2 295 5 297 8 3 2 -41 52 -98 111 l-103 107
-456 0 c-426 0 -456 -1 -460 -17z"/>
</g>
</svg>
